<svg id="Capa_1" enable-background="new 0 0 512 512" height="512" viewBox="0 0 512 512" width="512" xmlns="http://www.w3.org/2000/svg"><g><g><path d="m447.029 264.518v-69.354h.001c-5.141-17.682-11.505-34.934-18.951-51.4l-103.408-56.078h-137.356l-103.395 56.081c-7.445 16.465-13.809 33.716-18.95 51.398h.001v69.354l-14.324 53.179c1.66 24.934 6.35 47.538 13.648 67.757l123.019 38.861h137.357l123.034-38.861c7.298-20.219 11.988-42.822 13.648-67.756z" fill="#eca0aa"/></g><g><path d="m187.315 87.686-103.395 56.081c-7.445 16.465-13.809 33.716-18.95 51.398h.001v69.354l-14.324 53.179c1.66 24.934 6.35 47.538 13.648 67.757l110.132 34.79c-19.495-32.565-30.751-73.653-30.751-123.036 0-74.032 25.293-152.018 65.726-209.521h-22.087z" fill="#e16e7e"/></g><g><path d="m392.502 82.414-37.44-20.604v-20.603c-29.393-25.686-63.153-41.207-99.062-41.207s-69.669 15.521-99.061 41.207v20.604l-37.44 20.604c-13.575 18.453-25.556 39.188-35.578 61.352 8.714 10.452 17.297 21.062 34.721 21.062 34.337 0 34.337-41.207 68.674-41.207 34.339 0 34.339 41.207 68.677 41.207 34.34 0 34.34-41.207 68.679-41.207 34.341 0 34.341 41.207 68.683 41.207 17.427 0 26.01-10.611 34.725-21.064-10.023-22.164-22.004-42.898-35.578-61.351z" fill="#f6ee86"/></g><g><path d="m156.939 41.207v20.604l-37.44 20.604c-13.575 18.453-25.556 39.188-35.578 61.352 8.714 10.452 17.297 21.062 34.721 21.062 34.337 0 34.337-41.207 68.674-41.207.055 0 .107.003.161.003 28.486-53.931 68.914-96.911 115.375-114.721-15.052-5.769-30.735-8.904-46.852-8.904-35.909 0-69.669 15.521-99.061 41.207z" fill="#eed076"/></g><g><path d="m386.408 470.793v-20.604l38.893-20.604c8.987-13.166 16.538-27.878 22.404-44.132-20.913-9.403-25.597-38.282-54.345-38.282-34.337 0-34.337 41.207-68.674 41.207-34.339 0-34.339-41.207-68.677-41.207-34.34 0-34.34 41.207-68.679 41.207-34.341 0-34.341-41.207-68.682-41.207-28.752 0-33.436 28.88-54.351 38.283 5.867 16.254 13.417 30.966 22.404 44.132l38.893 20.604v20.604c35.519 27.317 80.922 41.206 130.406 41.206s94.888-13.89 130.408-41.207z" fill="#f6ee86"/></g><g><path d="m152.238 366.876c-8.343-9.994-16.921-19.705-33.592-19.705-28.752 0-33.436 28.88-54.351 38.283 5.867 16.254 13.417 30.966 22.404 44.132l38.893 20.604v20.604c35.521 27.317 80.924 41.206 130.408 41.206 16.118 0 31.802-1.477 46.854-4.407-72.094-14.036-129.649-61.513-150.616-140.717z" fill="#eed076"/></g><g><path d="m119.498 82.414h273.004c-11.422-15.526-23.971-29.436-37.44-41.207h-198.123c-13.47 11.771-26.019 25.682-37.441 41.207z" fill="#c8a2c8"/></g><g><path d="m250.657 41.207h-93.719c-13.47 11.771-26.019 25.681-37.441 41.207h93.711c11.425-15.527 23.976-29.436 37.449-41.207z" fill="#b68db7"/></g><g><path d="m86.7 429.586c10.959 16.056 24.063 29.802 38.893 41.207h260.816c14.829-11.405 27.933-25.152 38.893-41.207z" fill="#c8a2c8"/></g><g><path d="m180.42 429.586h-93.72c10.959 16.056 24.063 29.802 38.893 41.207h93.712c-14.828-11.404-27.927-25.154-38.885-41.207z" fill="#b68db7"/></g><g><g><g><ellipse cx="173.951" cy="264.518" fill="#fff" rx="30.274" ry="24.109"/></g><g><ellipse cx="338.049" cy="264.518" fill="#fff" rx="30.274" ry="24.109"/></g><g><path d="m280.409 245.994c0-15.085-10.928-16.502-24.409-16.502s-24.409 1.417-24.409 16.502 10.928 27.313 24.409 27.313 24.409-12.228 24.409-27.313z" fill="#3a4351"/></g></g><g><path d="m179.013 243.235c-4.142 0-7.5-3.358-7.5-7.5v-12.362c0-4.142 3.358-7.5 7.5-7.5s7.5 3.358 7.5 7.5v12.362c0 4.142-3.358 7.5-7.5 7.5z" fill="#3a4351"/></g><g><path d="m332.988 243.235c-4.142 0-7.5-3.358-7.5-7.5v-12.362c0-4.142 3.358-7.5 7.5-7.5s7.5 3.358 7.5 7.5v12.362c0 4.142-3.358 7.5-7.5 7.5z" fill="#3a4351"/></g></g><g><path d="m396.105 256c0 34.137 27.674 61.811 61.811 61.811 1.155 0 2.301-.038 3.441-.1.444-6.67.68-13.5.68-20.503 0-33.97-5.338-68.768-15.007-102.043-28.943 5.145-50.925 30.415-50.925 60.835z" fill="#fbf1cf"/></g><g><path d="m64.971 195.164c-9.669 33.275-15.007 68.073-15.007 102.043 0 7.004.236 13.834.68 20.503 1.14.063 2.286.1 3.441.1 34.137 0 61.811-27.674 61.811-61.811-.001-30.419-21.983-55.689-50.925-60.835z" fill="#f7dfb7"/></g></g></svg>