<svg height="512" viewBox="0 0 128 128" width="512" xmlns="http://www.w3.org/2000/svg"><g><g><circle cx="64" cy="64" fill="#4d5680" r="62.25"/><circle cx="64" cy="64" fill="#f3f5f9" r="54.25"/><g fill="#ff6680"><path d="m70.427 82.849h-12.854v-23.712h6.427a9.641 9.641 0 1 0 -9.641-9.637h-12.859a22.5 22.5 0 1 1 28.923 21.56z"/><path d="m57.573 89.788h12.855v11.212h-12.855z"/></g></g><g><path d="m64 0a64 64 0 1 0 64 64 64.073 64.073 0 0 0 -64-64zm0 124.5a60.5 60.5 0 1 1 60.5-60.5 60.569 60.569 0 0 1 -60.5 60.5z"/><path d="m64 8a56 56 0 0 0 -18.283 108.933 1.75 1.75 0 0 0 1.144-3.308 52.511 52.511 0 1 1 17.139 2.875 1.75 1.75 0 0 0 0 3.5 56 56 0 0 0 0-112z"/><path d="m64 41.6a7.891 7.891 0 1 1 0 15.782h-6.428a1.75 1.75 0 0 0 -1.75 1.75v23.714a1.75 1.75 0 0 0 1.75 1.75h12.856a1.751 1.751 0 0 0 1.75-1.75v-10.527a24.42 24.42 0 0 0 16.068-22.826 1.75 1.75 0 0 0 -3.5 0 20.886 20.886 0 0 1 -14.819 19.884 1.748 1.748 0 0 0 -1.249 1.677v10.046h-9.356v-20.216h4.678a11.391 11.391 0 1 0 -11.257-13.141h-9.416a20.775 20.775 0 0 1 20.673-18.996 1.75 1.75 0 0 0 0-3.5 24.274 24.274 0 0 0 -24.246 24.246 1.75 1.75 0 0 0 1.75 1.75h12.855a1.75 1.75 0 0 0 1.75-1.75 7.9 7.9 0 0 1 7.891-7.893z"/><path d="m80.045 36.357a1.75 1.75 0 1 0 2.707-2.218 24.363 24.363 0 0 0 -5.2-4.744 1.75 1.75 0 1 0 -1.961 2.9 20.865 20.865 0 0 1 4.454 4.062z"/><path d="m72.178 101v-11.214a1.75 1.75 0 0 0 -1.75-1.75h-12.856a1.749 1.749 0 0 0 -1.75 1.75v11.214a1.75 1.75 0 0 0 1.75 1.75h12.856a1.751 1.751 0 0 0 1.75-1.75zm-3.5-1.75h-9.356v-7.714h9.356z"/></g></g></svg>