<svg id="Capa_1" enable-background="new 0 0 486.206 486.206" height="512" viewBox="0 0 486.206 486.206" width="512" xmlns="http://www.w3.org/2000/svg"><g><path d="m36.809 216.302c-16.382 0-29.662-13.28-29.662-29.662s13.28-29.662 29.662-29.662c.544-.011 1.089.011 1.631.065-2.34-4.47-3.549-9.446-3.522-14.491-.007-17.438 14.124-31.579 31.562-31.586h.024c-.007-17.438 14.124-31.579 31.562-31.586h.024c2.601-.009 5.192.319 7.708.978.641-13.204 11.865-23.389 25.07-22.747 6.511.316 12.612 3.274 16.892 8.191 7.418-14.538 25.216-20.31 39.754-12.893 3.225 1.645 6.119 3.869 8.54 6.56 7.85-10.669 22.863-12.955 33.532-5.105 1.906 1.402 3.593 3.078 5.008 4.975 5.043-9.539 16.864-13.184 26.403-8.142 5.971 3.156 9.888 9.172 10.359 15.909 5.906-6.102 14.039-9.542 22.531-9.528 14.989.016 27.919 10.525 30.999 25.194 4.321-2.775 9.35-4.247 14.485-4.239 12.697.014 23.67 8.868 26.368 21.274 3.558-1.473 7.373-2.226 11.224-2.218 12.1 0 22.982 7.366 27.477 18.6 3.582-3.425 8.356-5.322 13.311-5.289 10.786 0 19.537 8.728 19.567 19.513 0 .717-.065 1.5-.13 2.218.652-.065 1.37-.13 2.022-.13 10.786.029 19.513 8.781 19.513 19.567.015 2.07-.338 4.126-1.044 6.072 15.742 4.504 24.852 20.916 20.348 36.658-3.66 12.793-15.396 21.58-28.702 21.491" fill="#eeefee"/><path d="m486.206 192.549v10.311c.003 92.597-56.791 175.715-143.057 209.365v12.007c0 7.204-5.84 13.045-13.045 13.045h-164.794c-7.193-.026-13.019-5.851-13.045-13.045v-8.681c-91.054-30.989-152.276-116.508-152.265-212.691v-10.311z" fill="#f2b15a"/><path d="m404.63 192.549v10.311c.003 92.597-56.791 175.715-143.057 209.365v12.007c0 7.204-5.84 13.045-13.045 13.045h-83.218c-7.193-.026-13.019-5.851-13.045-13.045v-8.681c-91.054-30.989-152.276-116.508-152.265-212.691v-10.311z" fill="#f6b863"/><g fill="#e0e0e0"><circle cx="155.515" cy="93.635" r="5.508"/><circle cx="230.361" cy="95.877" r="11.829"/><circle cx="143.022" cy="160.963" r="6.985"/><circle cx="297.665" cy="173.99" r="6.676"/><circle cx="305.005" cy="109.336" r="7.341"/><ellipse cx="246.88" cy="150.943" rx="4.998" ry="4.998" transform="matrix(.16 -.987 .987 .16 58.341 370.456)"/><circle cx="96.162" cy="131.364" r="8.971"/><circle cx="71.46" cy="167.948" r="3.036"/><circle cx="399.815" cy="141.788" r="9.155"/><circle cx="343.552" cy="139.618" r="7.886"/><circle cx="222.611" cy="173.99" r="6.676"/><circle cx="184.266" cy="135.698" r="10.246"/><circle cx="278.353" cy="138.349" r="5.71"/></g></g></svg>